<svg width="32" height="32" viewBox="0 0 32 32" fill="none" xmlns="http://www.w3.org/2000/svg">
<path d="M24.4638 10.2693L23.5226 11.0221C24.0676 12.0625 24.815 12.9607 24.815 15.8686C24.1688 21.2868 20.1909 24.269 16.0914 24.269V22.0074L12.5374 24.5921L16.0913 27.5V25.4537C21.5656 25.4537 25.9996 21.0197 25.9996 15.5454C25.9996 13.6009 25.4298 11.7927 24.4638 10.2693Z" fill="white" stroke="white" stroke-width="0.4"/>
<path d="M8.34687 21.3802L9.25148 20.5838C8.65805 19.5703 7.86908 18.7083 7.7319 15.8037C7.5958 10.6348 11.9545 7.19442 16.0494 7.00101L16.1561 9.26016L19.5843 6.5106L15.8971 3.77365L15.9937 5.81767C10.5254 6.07594 6.30562 10.7141 6.56388 16.1823C6.65562 18.1247 7.31002 19.904 8.34687 21.3802Z" fill="white" stroke="white" stroke-width="0.4"/>
<path fill-rule="evenodd" clip-rule="evenodd" d="M16 13.75C14.7574 13.75 13.75 14.7574 13.75 16C13.75 17.2426 14.7574 18.25 16 18.25C17.2426 18.25 18.25 17.2426 18.25 16C18.25 14.7574 17.2426 13.75 16 13.75ZM12.25 16C12.25 13.9289 13.9289 12.25 16 12.25C18.0711 12.25 19.75 13.9289 19.75 16C19.75 18.0711 18.0711 19.75 16 19.75C13.9289 19.75 12.25 18.0711 12.25 16Z" fill="white"/>
</svg>
